<?xml version="1.0" encoding="utf-8"?>
<!-- Generator: Adobe Illustrator 19.2.1, SVG Export Plug-In . SVG Version: 6.00 Build 0)  -->
<svg version="1.1" id="layer" xmlns="http://www.w3.org/2000/svg" xmlns:xlink="http://www.w3.org/1999/xlink" x="0px" y="0px"
	 viewBox="0 0 652 652" style="enable-background:new 0 0 652 652;" xml:space="preserve">
<style type="text/css">
	.st0{fill:#FFFFFF;}
	.st1{fill:#2DA67B;}
</style>
<rect x="213.1" y="237.8" class="st0" width="49.3" height="64.1"/>
<rect x="306.7" y="237.3" class="st0" width="49.3" height="64.1"/>
<rect x="403.7" y="237.3" class="st0" width="49.3" height="64.1"/>
<rect x="494.8" y="237.3" class="st0" width="49.3" height="64.1"/>
<rect x="117.5" y="237.3" class="st0" width="49.3" height="64.1"/>
<rect x="132" y="373.4" class="st0" width="62.5" height="64.1"/>
<rect x="226.3" y="372.5" class="st0" width="59.9" height="64.1"/>
<rect x="321.8" y="375.6" class="st0" width="59.9" height="64.1"/>
<g>
	<path class="st1" d="M153.9,262.4c1-1.6,1.5-3.4,1.5-5.4c0-1.2-0.3-2.4-0.7-3.1c-0.5-0.9-1.3-1.6-2.3-1.9c-0.9-0.4-3.1-0.6-6.3-0.6
		H139l-2.8,15.4h3.1c5.2,0,8.8-0.4,10.5-1C151.5,265.1,152.9,263.9,153.9,262.4"/>
	<path class="st1" d="M249.7,261.5c1-1.4,1.5-3.1,1.5-4.7c0-2-0.7-3.4-2.2-4.4c-0.8-0.5-2.7-0.8-5.6-0.8h-10.8l-2.5,14.3h5.1
		c5.3,0,8.9-0.4,10.5-1.1C247.3,264.1,248.8,262.9,249.7,261.5"/>
	<path class="st1" d="M567.3,234.9l-0.7-2l-1-1.7l-1.4-1.4l-2-1.3l-2.1-0.7h-2.3h-56.5h-2.4l-2.4,0.7l-2,1.3l-2.4,1.4l-1.7,1.7
		l-1.3,2l-1.4,2.4l-0.7,2.4l-10.8,59.6v2l0.3,2.1l0.7,2.3l1.4,1.7l1.3,1.8l1.7,1.6l2.1,0.7l2.4,0.3H506l-1.7,11.8h-80.9h-0.1
		l2.2-11.8h22.5l2.7-0.3l2.3-0.7l2.4-1.3l2.4-1.7l1.7-1.7l1.7-2.4l1.4-2.1l0.7-2.3l10.8-59.6l0.3-2.4l-0.3-2.4l-1-2l-1.1-1.7
		l-1.4-1.4l-2-1.3l-2-0.7h-2.4h-57.7h-2.7l-2.3,0.7l-2.1,1.3l-2.3,1.4l-1.8,1.7l-1.4,2l-1,2.4l-0.6,2.4l-10.8,59.6l-0.4,2l0.7,2.1
		l0.7,2.3l1,1.7l1.4,1.8l2,1.3l2,1l2.1,0.3h20.6l-2,11.8h-81.3l2.1-11.8h23.1l2.7-0.3l2.4-0.7l2-1.3l2.4-1.7l1.7-1.7l1.7-2.4l1-2.1
		l0.7-2.3l10.8-59.6l0.3-2.4l-0.3-2.4l-0.7-2l-1.4-1.7l-1.3-1.4l-2-1.3l-2.1-0.7H369h-58H309l-2.7,0.7l-2,1.3l-2.1,1.4l-2,1.7
		l-1.4,2l-1,2.4l-0.7,2.4l-10.8,59.6v2v2.1l1.1,2.3l1,1.7l1.3,1.8l2.1,1.3l2,1l2,0.3h21.7l-2.4,11.8H233l2.4-11.8h22.2l2.4-0.3
		l2.7-0.7l2.4-1.3l2.3-1.7l2.1-1.7l1.7-2.4l1.4-2.1l0.6-2.3l10.8-59.6l0.4-2.4l-0.4-2.4l-0.6-2l-1.4-1.7l-1.4-1.4l-2-1.3l-2-0.7
		h-2.1h-58.2h-2.5l-2.3,0.7l-2.4,1.3l-2,1.4l-2.1,1.7l-1.4,2l-1,2.4l-0.7,2.4l-10.8,59.6v2l0.4,2.1l1,2.3l1.4,1.7l1.7,1.8l2,1.3
		l2.1,1l2,0.3h20.3l-2,11.8h-81.1l2.1-11.8h23l2.3-0.3l2.4-0.7l2.4-1.3l2.4-1.7l1.7-1.7l1.7-2l1.3-2.1l0.7-2.7l10.5-59.3l0.3-2.7
		l-0.3-2l-0.7-2.1l-1-1.6l-1.4-1.8l-2-1l-2.1-0.7l-2.3-0.3h-57.5l-2.4,0.3l-2.4,0.7l-2,1l-2.4,1.8l-1.7,1.6l-1.4,2.1l-1,2l-0.7,2.7
		l-10.8,59.3l-0.3,2.3l0.3,2.1l0.7,2.4l1.4,1.7l1.3,1.7l1.7,1.3l2.1,0.7l2.3,0.3h20.8l-2.1,11.8H42.5l-5.4,29.3h35.1l-2,11.8H46.8
		l-2.4,0.4l-2.4,0.6l-2.4,1.4l-2,1.4l-1.7,2l-1.4,1.7l-1,2.4l-0.7,2.4l-11.1,59.6v2.3v2.4l1,1.7l1,2l1.7,1.4l1.7,1.1l2.4,0.6
		l2.1,0.4h57.5l2.4-0.4l2.4-0.6l2.4-1.1l1.6-1.4l2.1-2l1.4-1.7l1-2.4l1-2.3l10.8-59.6l0.3-2.4l-0.3-2.4l-1-2l-1-1.7l-1.7-1.4
		l-1.8-1.4l-2-0.6l-2.4-0.4H84.4l1.7-11.8h80.5l-2,11.8h-24l-2.4,0.4l-2.4,0.6l-2.4,1.4l-2,1.4l-1.7,2l-1.4,1.7l-1.3,2.4l-0.3,2.4
		l-11.2,59.6l-0.3,2.6l0.3,2.1l0.7,1.7l1.3,2l1.7,1.4l1.8,1.1l2,0.6l2.4,0.4h57.5l2.4-0.4l2.4-0.6l2.4-1.1l1.7-1.4l2-2l1.4-1.7
		l1.4-2.4l0.6-2.3l10.8-59.6v-2.4v-2.4l-1-2l-1-1.7l-1.7-1.4l-1.7-1.4l-2.1-0.6l-2.4-0.4h-19.7l2.1-11.8h80.7l-1.7,11.8h-23.6
		l-2.7,0.4l-2.4,0.6l-2,1.4l-2.4,1.4l-1.7,2l-1.4,1.7l-1,2.4l-0.7,2.4l-10.8,59.6l-0.3,2.3l0.3,2.4l0.7,1.7l1,2l1.8,1.4l1.6,1.1
		l2.4,0.6l2.1,0.4h56.9l2.7-0.4l2.1-0.6l2.4-1.1l2-1.4l1.7-2l1.7-1.7l1-2.4l0.7-2.3l10.8-59.6l0.3-2.4l-0.3-2.4l-0.7-2l-1-1.7
		l-1.7-1.4l-1.7-1.4l-2.4-0.6l-2.4-0.4h-19.5l2.4-11.8H356l-2.1,11.8h-23.4l-2.4,0.4l-2.4,0.6l-2.4,1.4l-2,1.4l-1.7,2l-1.4,1.7
		l-1.3,2.4l-0.7,2.4l-10.8,59.6v2.3l0.3,2.4l0.7,1.7l1,2l1.7,1.4l1.7,1.1l2.4,0.6l2,0.4h55.8l2.4-0.4l2.4-0.6l2.4-1.1l2-1.4l1.7-2
		l1.4-1.7l1-2.4l0.7-2.3l11.1-59.6l0.4-2.4l-0.4-2.4l-1-2l-1.1-1.7l-1.6-1.4l-1.7-1.4l-2.1-0.6l-2.4-0.4h-18.8l2.1-11.8h79.8
		l-1.7,11.8h-23.4l-2.4,0.4l-2.4,0.6l-2.4,1.4l-1.7,1.4l-2,2l-1.4,1.7l-1.4,2.4l-0.6,2.4l-10.8,59.6v2.3l0.3,2.4l0.7,1.7l1.4,2
		l1,1.4l2,1.1l2.4,0.6l2.1,0.4H466l2.4-0.4l2.4-0.6l2.4-1.1l2-1.4l1.7-2l1.4-1.7l1-2.4l0.7-2.3l11.1-59.6l0.3-2.4l-0.3-2.4l-1-2
		l-1-1.7l-1.4-1.4l-2.1-1.4l-2-0.6l-2.4-0.4h-19.5l2-11.8h82l5.3-29.3H518l1.7-11.8h21.7l2.7-0.3l2.4-0.7l2.3-1.3l2.4-1.7l2.1-1.7
		l1.7-2.4l1-2.1l0.7-2.3l10.8-59.6l0.3-2.4L567.3,234.9z M131,296.1h-9.8l9.8-53.8h19.3c3.3,0,6.1,0.5,8.1,1.3
		c2,0.9,3.6,2.5,4.8,4.5c1.2,2.2,1.7,4.7,1.7,7.7c0,2.7-0.4,5.4-1.4,7.9c-0.9,2.6-2.2,4.7-3.4,6.3c-1.4,1.6-2.8,2.8-4.3,3.5
		c-1.5,0.7-3.8,1.4-6.3,1.8c-1.5,0.2-4.4,0.4-8.7,0.4h-6.2L131,296.1z M179.5,377.1H191l-9.7,57.4h-12.5l-17.2-40.3h-0.2l-6.5,40.3
		h-11.7l9.7-57.4h12.9l17.1,40.8h0.2L179.5,377.1z M228.5,273.7l-4,22.4h-9.8l9.8-53.7h21c3.5,0,6.4,0.4,8.4,1.2
		c2,0.8,3.6,2.4,4.9,4.6c1.2,2.3,1.9,5.1,1.9,8.2c0,4.5-1.2,8.2-3.3,11.2c-2.4,3-5.9,4.8-10.8,5.6c1.3,1.2,2.5,3,3.5,4.9
		c2.2,4.2,4.6,10.2,7.3,17.8H247c-0.9-3-2.6-7.7-5.1-14.2c-1.4-3.5-2.8-5.9-4.3-7c-0.9-0.6-2.7-1.1-5-1.1H228.5z M283.2,377.1
		l-1.7,10.6h-30.9l-2.1,12.3h28.6l-1.7,9.8h-28.6l-2.4,14.1h31.4l-1.8,10.6h-43.9l9.7-57.4H283.2z M316.9,293.5
		c-2.9-2.2-5.1-5.1-6.2-8.3c-1.3-3.3-1.9-6.7-1.9-10.1V275c0-3.1,0.4-6.4,1.3-9.9c1.1-4.7,2.7-8.6,4.9-12.1c2.2-3.5,5.1-6.2,8.4-8.2
		c3.3-1.9,7.3-2.9,11.6-2.9c5.8,0,10.5,2,14,6.1c3.5,4.1,5.3,9.7,5.3,16.4c0,5.6-1.2,11.1-3.4,16.2c-2.3,5.3-5.5,9.5-9.5,12.2
		c-4,2.7-8.5,4.2-13.5,4.2C323.6,296.8,319.8,295.7,316.9,293.5 M378.3,380.2l-1.8,10.6h-17l-7.8,46.8H339l7.9-46.8H329l1.8-10.6
		H378.3z M417.3,296.2h-9.7l9.8-53.7h32.8l-1.9,9.1h-22.8l-2.3,12.9h22.8l-1.8,9.1h-22.6L417.3,296.2z M521,296.2h-9.6l9.7-53.8h9.8
		L521,296.2z"/>
	<path class="st1" d="M344.9,264.3c0-4.2-1-7.5-3-10c-2-2.3-4.6-3.6-7.7-3.6c-4.7,0-8.7,2.5-11.6,7.5c-2.9,5-4.4,10.6-4.4,16.6
		c0,3.7,1,6.8,2.9,9.3c2,2.4,4.6,3.8,7.9,3.8c2.5,0,5.1-1,7.4-2.9c2.5-1.8,4.5-5,6.1-9C344,272.1,344.9,268.2,344.9,264.3"/>
	<path class="st0" d="M620,220c0,12.7-10.3,22.9-22.9,22.9c-12.7,0-22.9-10.3-22.9-22.9c0-12.7,10.3-22.9,22.9-22.9
		C609.7,197.1,620,207.4,620,220"/>
	<path class="st1" d="M621.9,220.6c0,4.5-1.1,8.8-3.4,12.7c-2.3,3.9-5.4,7-9.3,9.3c-3.9,2.2-8.1,3.4-12.7,3.4
		c-4.5,0-8.7-1.1-12.6-3.4c-3.9-2.3-7-5.3-9.3-9.3c-2.3-3.9-3.4-8.1-3.4-12.7c0-4.5,1.1-8.7,3.4-12.7c2.3-3.9,5.4-7,9.3-9.3
		c3.9-2.2,8.1-3.4,12.6-3.4c4.5,0,8.8,1.1,12.7,3.4c3.9,2.3,7,5.3,9.3,9.3C620.8,211.8,621.9,216.1,621.9,220.6 M617,220.6
		c0-5.6-2-10.4-6-14.4s-8.8-6-14.4-6c-5.6,0-10.4,2-14.4,6c-4,4-6,8.8-6,14.4s2,10.4,6,14.4c4,4,8.8,6,14.4,6c5.6,0,10.4-2,14.4-6
		S617,226.2,617,220.6 M585.1,207h12.1c3.4,0,5.9,0.7,7.4,2.1c1.5,1.4,2.3,3.2,2.3,5.6c0,1.8-0.6,3.4-1.8,4.7
		c-1.2,1.3-3,2.3-5.5,2.9c1,0.4,1.8,0.8,2.3,1.3c0.7,0.6,1.4,1.5,2.2,2.8c0,0.1,1.5,2.7,4.4,7.8h-8c-2.6-5.1-4.3-8.2-5.2-9.2
		c-0.9-1-1.8-1.5-2.7-1.5c-0.2,0-0.5,0-0.8,0.1v10.6h-6.7V207z M591.9,218.5h2.9c1.9,0,3.3-0.3,4.1-0.9c0.8-0.6,1.2-1.4,1.2-2.4
		c0-1-0.4-1.8-1.1-2.4c-0.8-0.6-2.1-0.9-3.9-0.9h-3.2V218.5z"/>
</g>
</svg>
